<?xml version="1.0" encoding="UTF-8"?>
<svg version="1.1" xmlns="http://www.w3.org/2000/svg" width="200" height="200">
<path d="M0 0 C66 0 132 0 200 0 C200 59.4 200 118.8 200 180 C196.09490125 180.97627469 192.38141337 181.36243863 188.3894043 181.64501953 C187.61973233 181.70233529 186.85006037 181.75965105 186.05706501 181.81870365 C184.37229522 181.94368979 182.68740386 182.06704535 181.00241089 182.18898582 C178.26683025 182.38696583 175.53158682 182.58914656 172.79638672 182.79231262 C168.83552583 183.08602844 164.87453382 183.37787539 160.91342163 183.66818237 C150.3687596 184.4412176 139.82488225 185.22477424 129.28125 186.01171875 C127.65939065 186.13264861 127.65939065 186.13264861 126.00476646 186.2560215 C110.00855292 187.45073841 94.01833535 188.70850955 78.03125 190.01953125 C76.03058382 190.18316803 74.02991753 190.3468033 72.0292511 190.51043701 C63.46500129 191.21198596 54.90120841 191.91839269 46.33852196 192.63878727 C42.8243226 192.93318762 39.30970739 193.22238642 35.79498291 193.51044273 C34.18728721 193.64344395 32.57977998 193.7787502 30.97250366 193.91672707 C28.75776367 194.1067342 26.54247022 194.28841991 24.3269043 194.46850586 C23.09739548 194.57174667 21.86788666 194.67498749 20.60112 194.78135681 C13.74143385 195.10732607 6.86742674 195 0 195 C0 130.65 0 66.3 0 0 Z " fill="#0266FE" transform="translate(0,0)"/>
<path d="M0 0 C2.24384244 2.06276676 3.61565942 3.90056241 4.88183594 6.66674805 C5.38816559 7.76015755 5.38816559 7.76015755 5.90472412 8.87565613 C6.26100891 9.66305679 6.6172937 10.45045746 6.984375 11.26171875 C7.36305725 12.08517288 7.7417395 12.90862701 8.13189697 13.7570343 C9.34418694 16.39770767 10.54703463 19.04256792 11.75 21.6875 C12.54369078 23.41758393 13.33795607 25.14740442 14.1328125 26.87695312 C18.06494855 35.45184243 21.93973971 44.04923598 25.6852417 52.70744324 C28.05371331 58.17529142 30.57825855 63.56288161 33.1171875 68.953125 C35.29730519 73.61181498 37.39723673 78.30601538 39.5 83 C45.84210849 97.26629334 45.84210849 97.26629334 52.6953125 111.2890625 C54 114 54 114 54 116 C49.05 116 44.1 116 39 116 C37.36816149 112.64901058 35.74438983 109.29449958 34.125 105.9375 C33.66480469 104.99455078 33.20460938 104.05160156 32.73046875 103.08007812 C32.28574219 102.15517578 31.84101562 101.23027344 31.3828125 100.27734375 C30.97434082 99.43421631 30.56586914 98.59108887 30.14501953 97.72241211 C28.82447462 94.58266875 27.93574014 91.27509048 27 88 C9.84 88.33 -7.32 88.66 -25 89 C-28.90660067 97.51048461 -28.90660067 97.51048461 -32.80834961 106.02319336 C-33.29311768 107.07643799 -33.77788574 108.12968262 -34.27734375 109.21484375 C-34.77484131 110.29886475 -35.27233887 111.38288574 -35.78491211 112.49975586 C-37 115 -37 115 -38 116 C-40.35313555 116.07271741 -42.70833668 116.08370868 -45.0625 116.0625 C-46.99802734 116.04896484 -46.99802734 116.04896484 -48.97265625 116.03515625 C-49.97167969 116.02355469 -50.97070312 116.01195312 -52 116 C-51.37504055 112.23748903 -50.28833055 109.05231635 -48.7421875 105.5703125 C-48.04996094 104.00410156 -48.04996094 104.00410156 -47.34375 102.40625 C-46.8590625 101.3234375 -46.374375 100.240625 -45.875 99.125 C-45.18277344 97.55878906 -45.18277344 97.55878906 -44.4765625 95.9609375 C-40.76023554 87.58899216 -36.8928959 79.2907258 -33 71 C-24.8830376 53.68592671 -16.83997507 36.34453273 -8.97460938 18.91455078 C-6.09806321 12.54874121 -3.19468858 6.21454345 0 0 Z " fill="#FAFCFF" transform="translate(84,32)"/>
<path d="M0 0 C2.94511046 2.52461233 4.19719058 5.25064901 5.7421875 8.77734375 C6.25136719 9.93169922 6.76054688 11.08605469 7.28515625 12.27539062 C7.80980469 13.48388672 8.33445312 14.69238281 8.875 15.9375 C9.65037109 17.69803711 9.65037109 17.69803711 10.44140625 19.49414062 C12.95949039 25.23118623 15.43756883 30.98544029 17.8828125 36.75390625 C18.29160645 37.71756104 18.70040039 38.68121582 19.12158203 39.67407227 C20 42 20 42 20 44 C7.13 44 -5.74 44 -19 44 C-16.96958838 37.90876513 -14.89338707 32.24021153 -12.20703125 26.46484375 C-11.85613937 25.70071671 -11.5052475 24.93658966 -11.14372253 24.14930725 C-10.03768195 21.74333181 -8.92522241 19.34039133 -7.8125 16.9375 C-7.05490929 15.29251533 -6.297744 13.64733466 -5.54101562 12.00195312 C-3.6989134 7.99902281 -1.85105401 3.99879817 0 0 Z " fill="#0568FF" transform="translate(84,63)"/>
<path d="M0 0 C4.47996623 -0.05008562 8.95977661 -0.08603769 13.43994141 -0.10986328 C14.95852504 -0.11981384 16.47709007 -0.13337916 17.99560547 -0.15087891 C49.17114952 -0.50070349 49.17114952 -0.50070349 60 10 C63 13.51724138 63 13.51724138 63 16 C60.02058002 16.05455703 57.04218469 16.09393851 54.0625 16.125 C52.81629883 16.15013672 52.81629883 16.15013672 51.54492188 16.17578125 C46.46333111 16.2153267 41.93302218 15.7051094 37.00219727 14.48095703 C34.49197869 13.87796586 32.00765698 13.59219636 29.4375 13.375 C28.59058594 13.30023438 27.74367188 13.22546875 26.87109375 13.1484375 C26.25363281 13.09945312 25.63617188 13.05046875 25 13 C25 13.99 25 14.98 25 16 C19.06 16 13.12 16 7 16 C5.2675 12.3184375 5.2675 12.3184375 3.5 8.5625 C3.13455078 7.78849854 2.76910156 7.01449707 2.39257812 6.21704102 C0 1.11111111 0 1.11111111 0 0 Z " fill="#F7FAFF" transform="translate(91,31)"/>
<path d="M0 0 C5.56817481 -0.22333783 11.13371858 -0.38617494 16.70532227 -0.49438477 C18.59803699 -0.53950716 20.49044034 -0.60082605 22.38208008 -0.67895508 C37.98631646 -1.30706562 37.98631646 -1.30706562 42.76904297 1.79736328 C46.19961918 5.98752262 47.98867482 10.71863518 49 16 C46.58063683 16.16249454 44.17218141 16.28097817 41.75 16.375 C41.06808594 16.42527344 40.38617188 16.47554687 39.68359375 16.52734375 C37.671875 16.5859375 37.671875 16.5859375 34 16 C31.79296875 13.15234375 31.79296875 13.15234375 30 10 C27.88295512 8.31055507 27.88295512 8.31055507 25.5625 7.1875 C24.82128906 6.78917969 24.08007812 6.39085938 23.31640625 5.98046875 C18.28457562 3.85063825 13.07377539 3.7311218 7.6875 3.4375 C6.94693359 3.39431641 6.20636719 3.35113281 5.44335938 3.30664062 C3.62908536 3.20129568 1.8145645 3.10021684 0 3 C0 2.01 0 1.02 0 0 Z " fill="#F3F7FF" transform="translate(119,92)"/>
<path d="M0 0 C3.13671875 -0.48828125 3.13671875 -0.48828125 6.6875 -0.3125 C7.86699219 -0.26738281 9.04648438 -0.22226563 10.26171875 -0.17578125 C11.61716797 -0.08876953 11.61716797 -0.08876953 13 0 C12.47260026 3.78295368 11.64487084 5.87783001 9.0625 8.6875 C8.53785156 9.26886719 8.01320312 9.85023437 7.47265625 10.44921875 C6.33264068 11.6497126 5.17064533 12.82935467 4 14 C4 14.33 4 14.66 4 15 C-6.23 15 -16.46 15 -27 15 C-27.33 13.68 -27.66 12.36 -28 11 C-26.54980469 10.97873047 -26.54980469 10.97873047 -25.0703125 10.95703125 C-16.98400997 10.66080037 -9.6237004 10.24597072 -3 5 C-2.55527344 4.12472656 -2.11054688 3.24945313 -1.65234375 2.34765625 C-0.83443359 1.18556641 -0.83443359 1.18556641 0 0 Z " fill="#FBFCFF" transform="translate(143,72)"/>
<path d="M0 0 C4.95 0 9.9 0 15 0 C15.19329322 6.28202978 14.80980334 9.66568832 13 16 C7.39 16 1.78 16 -4 16 C-3.01 13.69 -2.02 11.38 -1 9 C-0.4504486 6.42147162 -0.4504486 6.42147162 -0.3125 4.0625 C-0.209375 2.721875 -0.10625 1.38125 0 0 Z " fill="#F3F8FF" transform="translate(154,112)"/>
<path d="M0 0 C5.28 0 10.56 0 16 0 C17.11031666 5.5515833 17.06806353 10.35072665 17 16 C12.38 16 7.76 16 3 16 C2.8046875 13.29817708 2.609375 10.59635417 2.4140625 7.89453125 C2.05389346 4.56399432 2.05389346 4.56399432 0 0 Z " fill="#F2F7FF" transform="translate(141,51)"/>
<path d="M0 0 C1.07636719 0.00322266 2.15273437 0.00644531 3.26171875 0.00976562 C4.38964844 0.01814453 5.51757812 0.02652344 6.6796875 0.03515625 C7.81535156 0.03966797 8.95101562 0.04417969 10.12109375 0.04882812 C12.93234388 0.0606401 15.7434898 0.07711118 18.5546875 0.09765625 C17.62250098 1.21949125 16.68532003 2.3371772 15.74609375 3.453125 C15.22474854 4.07598389 14.70340332 4.69884277 14.16625977 5.34057617 C10.17446823 9.69278397 4.91939829 12.8514579 -1.0078125 13.28515625 C-4.5980203 11.53608065 -5.28623236 8.82139904 -6.74609375 5.2265625 C-7.4453125 3.09765625 -7.4453125 3.09765625 -7.4453125 1.09765625 C-4.83580014 -0.20709993 -2.91829965 -0.01535947 0 0 Z " fill="#FAFCFF" transform="translate(145.4453125,132.90234375)"/>
<path d="M0 0 C5.28 0 10.56 0 16 0 C16 5.28 16 10.56 16 16 C13.03 16 10.06 16 7 16 C5.82845707 13.71070947 4.66261926 11.41881638 3.5 9.125 C3.16613281 8.47402344 2.83226563 7.82304688 2.48828125 7.15234375 C0 2.2265625 0 2.2265625 0 0 Z " fill="#ECF3FF" transform="translate(100,51)"/>
<path d="M0 0 C1.65 0 3.3 0 5 0 C5 3.63 5 7.26 5 11 C2.09591658 7.12788877 1.14920536 4.59682146 0 0 Z " fill="#F4F8FF" transform="translate(110,72)"/>
</svg>
