<svg xmlns="http://www.w3.org/2000/svg" width="200" height="200"><path d="M0 0h200v180c-3.905.976-7.619 1.362-11.61 1.645l-2.333.174c-1.685.125-3.37.248-5.055.37-2.735.198-5.47.4-8.206.603-3.96.294-7.921.586-11.883.876-10.544.773-21.088 1.557-31.632 2.344l-3.276.244a6616.324 6616.324 0 00-47.974 3.764l-6.002.49c-8.564.702-17.128 1.408-25.69 2.129-3.515.294-7.03.583-10.544.871-1.608.133-3.215.269-4.822.407-2.215.19-4.43.371-6.646.552l-3.726.312C13.741 195.107 6.867 195 0 195V0z" fill="#0266FE"/><path d="M84 32c2.244 2.063 3.616 3.9 4.882 6.667l1.023 2.209 1.08 2.386 1.147 2.495c1.212 2.64 2.415 5.286 3.618 7.93l2.383 5.19c3.932 8.575 7.807 17.172 11.552 25.83 2.369 5.468 4.893 10.856 7.432 16.246 2.18 4.659 4.28 9.353 6.383 14.047 6.342 14.266 6.342 14.266 13.195 28.29C138 146 138 146 138 148h-15a3014.647 3014.647 0 01-4.875-10.063l-1.395-2.857-1.347-2.803-1.238-2.555c-1.32-3.14-2.21-6.447-3.145-9.722l-52 1c-3.907 8.51-3.907 8.51-7.808 17.023l-1.47 3.192-1.507 3.285C47 147 47 147 46 148c-2.353.073-4.708.084-7.063.063l-3.91-.028L32 148c.625-3.763 1.712-6.948 3.258-10.43l1.398-3.164 1.469-3.281 1.398-3.164C43.24 119.589 47.107 111.29 51 103c8.117-17.314 16.16-34.655 24.025-52.085C77.902 44.549 80.805 38.215 84 32z" fill="#FAFCFF"/><path d="M84 63c2.945 2.525 4.197 5.25 5.742 8.777l1.543 3.498 1.59 3.662 1.566 3.557a1484.455 1484.455 0 017.442 17.26l1.239 2.92C104 105 104 105 104 107H65c2.03-6.091 4.107-11.76 6.793-17.535l1.063-2.316c1.106-2.406 2.219-4.809 3.332-7.212l2.271-4.935C80.301 70.999 82.149 66.999 84 63z" fill="#0568FF"/><path d="M91 31c4.48-.05 8.96-.086 13.44-.11 1.519-.01 3.037-.023 4.556-.04C140.17 30.5 140.17 30.5 151 41c3 3.517 3 3.517 3 6-2.98.055-5.958.094-8.938.125l-2.517.05c-5.082.04-9.612-.47-14.543-1.694-2.51-.603-4.994-.889-7.565-1.106l-2.566-.227L116 44v3H98l-3.5-7.438-1.107-2.345C91 32.111 91 32.111 91 31z" fill="#F7FAFF"/><path d="M119 92a808.364 808.364 0 0116.705-.494c1.893-.046 3.785-.107 5.677-.185 15.604-.628 15.604-.628 20.387 2.476 3.43 4.19 5.22 8.922 6.231 14.203-2.42.162-4.828.281-7.25.375l-2.066.152c-2.012.059-2.012.059-5.684-.527-2.207-2.848-2.207-2.848-4-6-2.117-1.69-2.117-1.69-4.438-2.813l-2.246-1.207c-5.031-2.13-10.242-2.249-15.629-2.543l-2.244-.13A1929.02 1929.02 0 00119 95v-3z" fill="#F3F7FF"/><path d="M143 72c3.137-.488 3.137-.488 6.688-.313l3.574.137L156 72c-.527 3.783-1.355 5.878-3.938 8.688l-1.59 1.761c-1.14 1.2-2.301 2.38-3.472 3.551v1h-31l-1-4 2.93-.043c8.086-.296 15.446-.711 22.07-5.957l1.348-2.652L143 72z" fill="#FBFCFF"/><path d="M154 112h15c.193 6.282-.19 9.666-2 16h-17l3-7c.55-2.579.55-2.579.688-4.938L154 112z" fill="#F3F8FF"/><path d="M141 51h16c1.11 5.552 1.068 10.35 1 16h-14l-.586-8.105c-.36-3.331-.36-3.331-2.414-7.895z" fill="#F2F7FF"/><path d="M145.445 132.902l3.262.01 3.418.025 3.441.014c2.812.012 5.623.028 8.434.049-.932 1.122-1.87 2.24-2.809 3.355-.52.623-1.042 1.246-1.58 1.888-3.991 4.352-9.246 7.51-15.173 7.944-3.59-1.749-4.279-4.463-5.739-8.058C138 136 138 136 138 134c2.61-1.305 4.527-1.113 7.445-1.098z" fill="#FAFCFF"/><path d="M100 51h16v16h-9c-1.172-2.29-2.337-4.581-3.5-6.875l-1.012-1.973C100 53.227 100 53.227 100 51z" fill="#ECF3FF"/><path d="M110 72h5v11c-2.904-3.872-3.85-6.403-5-11z" fill="#F4F8FF"/></svg>