<?xml version="1.0" encoding="UTF-8"?>
<svg version="1.1" xmlns="http://www.w3.org/2000/svg" width="500" height="349">
<path d="M0 0 C4.05517566 0.00258515 8.11034941 0.00016922 12.1655252 -0.00138617 C18.97056786 -0.00319093 25.77559957 -0.00084718 32.58064055 0.00395441 C40.36840351 0.00938711 48.15614023 0.00763465 55.94390255 0.00212801 C62.7116337 -0.00245989 69.47935712 -0.00302615 76.24708933 -0.00043333 C80.25333064 0.00109953 84.25955978 0.00140826 88.26580024 -0.00196981 C180.52244587 -0.06897908 180.52244587 -0.06897908 204.57258391 22.38041925 C220.64132423 39.13703373 227.54843596 62.6024216 228.72785735 85.3374505 C228.78954164 86.49690432 228.78954164 86.49690432 228.85247207 87.67978144 C229.31385098 97.0987073 229.35021262 106.51846167 229.36945891 115.9468255 C229.37228629 116.90078211 229.37511367 117.85473871 229.37802672 118.83760309 C229.39286637 123.8769429 229.40219404 128.91625515 229.40656829 133.95561457 C229.41206123 139.09884213 229.43615115 144.24180618 229.46454024 149.38495111 C229.48333306 153.40032391 229.48838077 157.4156349 229.48990417 161.43104792 C229.49288876 163.32528879 229.50077086 165.21952973 229.51408935 167.11372614 C229.68315594 192.98156726 225.68639522 223.45958278 206.72102141 242.8843255 C199.38766076 249.34306516 190.22114732 257.1343255 180.04133391 257.1343255 C176.23648762 255.81090071 174.11130041 253.86893725 171.16633391 251.1343255 C172.44815714 247.34712051 173.77965755 245.29454635 176.79133391 242.6968255 C195.15334499 224.83378212 197.91091388 196.42456802 198.36945891 172.27104425 C198.4012896 169.45457658 198.4133164 166.63846279 198.41633391 163.8218255 C198.41767333 163.06995966 198.41901275 162.31809381 198.42039275 161.54344416 C198.41537093 148.2474009 197.77856172 135.02097719 196.85383391 121.7593255 C196.76555327 120.4358259 196.76555327 120.4358259 196.67548919 119.08558893 C195.31377721 99.11000228 192.90338135 79.37679301 177.16633391 65.1343255 C168.21362781 57.88917654 159.33100951 55.72360825 147.97883391 55.439013 C146.90340331 55.40150934 145.82797271 55.36400568 144.7199533 55.32536554 C141.20236955 55.20652507 137.68455203 55.10743509 134.16633391 55.0093255 C131.70716076 54.93153028 129.24801371 54.85290602 126.78889251 54.77348566 C119.24863938 54.53638698 111.70776939 54.32985067 104.16633391 54.1343255 C102.99977263 54.10403254 101.83321136 54.07373957 100.63129973 54.04252863 C93.01832777 53.84783038 85.4050836 53.67069797 77.79133391 53.5093255 C76.82276458 53.48868036 75.85419524 53.46803522 74.85627532 53.44676447 C48.94150929 52.91157784 23.02329691 53.11381623 -2.89389062 53.37005091 C-7.46901465 53.41502789 -12.0440385 53.45434412 -16.61931062 53.48076105 C-21.12871208 53.5069458 -25.63778583 53.5473747 -30.14698243 53.59751177 C-31.8387594 53.61398442 -33.53059179 53.62561896 -35.22243714 53.63193941 C-54.74856101 53.63787541 -54.74856101 53.63787541 -71.83366609 62.1343255 C-79.94691204 70.43196341 -83.06771033 80.39223674 -83.10832429 91.84453058 C-83.11343522 92.56930094 -83.11854615 93.29407129 -83.12381196 94.04080439 C-83.13759252 96.41190834 -83.13675969 98.78271777 -83.13444734 101.15385675 C-83.13834118 102.82001078 -83.14267726 104.48616383 -83.14743257 106.15231562 C-83.15487045 109.63634194 -83.15462165 113.12026689 -83.14933991 116.60429621 C-83.14355477 121.04231642 -83.16046494 125.47991799 -83.18368459 129.91786909 C-83.19850543 133.3573874 -83.19928224 136.79680689 -83.19617486 140.23635149 C-83.19668409 141.87121836 -83.20184601 143.50609134 -83.21198678 145.14092684 C-83.30648598 162.50719588 -79.84929732 174.40337804 -68.70085359 187.87260675 C-61.02740317 193.92564189 -51.94547934 194.74942437 -42.48991609 194.84916925 C-40.59940522 194.89085482 -40.59940522 194.89085482 -38.67070222 194.93338251 C-34.92764394 195.01212527 -31.18465271 195.0612596 -27.44102693 195.10395288 C-24.6514398 195.13644822 -21.86194956 195.17401588 -19.07243562 195.2122674 C-4.35574634 195.41042026 10.36125464 195.54517067 25.07874846 195.66655207 C29.85469177 195.70685333 34.63059752 195.75088891 39.40650725 195.79496431 C53.6596653 195.92623317 67.91287999 196.0404757 82.16633391 196.1343255 C83.03618926 196.14021441 83.90604461 196.14610331 84.80225921 196.15217066 C89.8923706 196.18587619 94.98238297 196.20907188 100.07258391 196.22416925 C101.23978972 196.23090158 102.40699553 196.23763391 103.60957122 196.24457026 C113.05922202 196.49489747 113.05922202 196.49489747 121.85383391 193.6343255 C128.25706336 186.7119153 128.75442753 179.01451947 128.54133391 169.9468255 C128.54004485 168.89301691 128.53875579 167.83920832 128.53742766 166.75346613 C128.51632167 159.20820833 128.51632167 159.20820833 126.16633391 152.1343255 C123.25038753 150.28840968 120.99390976 149.8823606 117.57600188 149.87553644 C116.18348205 149.86621592 116.18348205 149.86621592 114.7628305 149.8567071 C113.2261975 149.86264383 113.2261975 149.86264383 111.65852141 149.8687005 C110.00103881 149.86460672 110.00103881 149.86460672 108.31007171 149.86043024 C104.55371471 149.85628911 100.79766065 149.86928592 97.04133391 149.8843255 C95.73863555 149.88676264 94.43593719 149.88919977 93.09376311 149.89171076 C65.76799262 149.94397291 38.44597558 150.42542369 11.12578368 150.94665766 C7.79182351 151.0093163 4.45782025 151.06891764 1.12379241 151.12785578 C-4.1844521 151.22257099 -9.49240754 151.32739341 -14.80030274 151.43995523 C-16.77573108 151.48056671 -18.75122405 151.5181613 -20.72677064 151.55254221 C-23.45586334 151.60084509 -26.18446569 151.66078902 -28.91325593 151.72368097 C-29.70358783 151.73519064 -30.49391973 151.74670031 -31.30820107 151.75855875 C-39.49217308 151.97338937 -45.91760804 153.21826746 -51.83366609 159.1343255 C-52.53984705 160.44715857 -53.21593527 161.77762699 -53.83366609 163.1343255 C-57.31350633 162.82904518 -60.79238192 162.51389633 -64.27116609 162.1968255 C-65.76100007 162.06630793 -65.76100007 162.06630793 -67.28093171 161.93315363 C-68.22516999 161.84614191 -69.16940827 161.75913019 -70.14225984 161.66948175 C-71.01680818 161.59092951 -71.89135652 161.51237726 -72.79240632 161.43144464 C-74.83366609 161.1343255 -74.83366609 161.1343255 -75.83366609 160.1343255 C-76.89556958 153.66435312 -77.00962724 147.2781153 -77.03679109 140.73198175 C-77.04249116 139.65484415 -77.04819123 138.57770655 -77.05406404 137.46792841 C-77.06346996 135.19959212 -77.07003038 132.93124244 -77.07390046 130.66288996 C-77.08362596 127.21106789 -77.11469999 123.75983683 -77.14616609 120.30815363 C-77.15269552 118.09526651 -77.15794622 115.88237517 -77.16179109 113.66948175 C-77.17413789 112.64734079 -77.18648469 111.62519983 -77.19920564 110.5720849 C-77.1701167 101.12613555 -75.3771354 93.85283303 -68.77897859 86.923388 C-59.70915519 78.58206448 -49.35193443 77.87256243 -37.46501374 77.51982355 C-36.35114604 77.48229566 -35.23727834 77.44476776 -34.08965707 77.40610266 C-19.13835257 76.95448485 -4.18009443 76.9694793 10.77660966 76.96706843 C13.30124822 76.96634723 15.82588167 76.96419359 18.35051894 76.96157122 C27.20009739 76.95239809 36.04966102 76.94822734 44.89924407 76.94902277 C53.08718419 76.94962594 61.27505896 76.9390066 69.46298254 76.92327911 C76.55839334 76.91014588 83.65378286 76.90484107 90.74920571 76.90547818 C94.95908946 76.90573085 99.16891447 76.90300691 103.37878585 76.89230013 C107.33043166 76.88251688 111.28196356 76.88260879 115.23361373 76.88981676 C116.66854308 76.89084902 118.10347995 76.88858242 119.5383966 76.8824563 C138.36133459 76.80739449 158.4435272 77.95604335 173.16633391 91.1343255 C189.43449345 107.8786263 192.27760845 127.65924696 192.36945891 150.064013 C192.37515899 151.17503382 192.38085906 152.28605463 192.38673186 153.43074274 C192.39612236 155.77203167 192.40269196 158.11333346 192.40656829 160.454638 C192.41621297 163.96530139 192.44726977 167.47536296 192.47883391 170.985888 C192.60695818 198.38634917 190.48808337 221.87302056 170.89289641 242.62260675 C156.51109272 255.87117377 138.42489093 257.23498366 119.87727141 257.45073175 C118.35691687 257.47158748 116.83656678 257.49276921 115.316221 257.51425409 C110.39133477 257.58198326 105.46635421 257.63983042 100.54133391 257.6968255 C98.82619481 257.7171816 97.11105606 257.73756753 95.39591765 257.75798273 C85.96239153 257.8692297 76.52879346 257.9703534 67.09507251 258.06355333 C62.31908896 258.11111165 57.54325055 258.16520977 52.76740813 258.2256341 C22.82393182 258.59371812 -7.05802185 257.85655354 -36.98222947 256.85843134 C-39.9243195 256.76046914 -42.86646235 256.66422001 -45.80861115 256.56804132 C-50.49708664 256.4134784 -55.18519893 256.25037157 -59.87315774 256.08087778 C-61.60375183 256.01898025 -63.33441686 255.95902607 -65.06515527 255.90130472 C-74.22395191 255.59264217 -83.3502183 255.09941278 -92.47770905 254.26860285 C-93.28175738 254.20174091 -94.08580571 254.13487898 -94.91421914 254.06599092 C-107.87480334 252.78810932 -117.00815564 247.30962803 -125.27507234 237.267138 C-129.83192538 231.03144437 -132.19962179 224.54590575 -134.02116609 217.0718255 C-134.17609529 216.44284357 -134.33102448 215.81386164 -134.49064851 215.16581964 C-138.02020841 199.39327895 -138.16232021 183.42225624 -138.24772859 167.34916925 C-138.26651054 165.07682889 -138.28608869 162.80449499 -138.30641389 160.53216791 C-138.35737357 154.58546676 -138.39713133 148.63874229 -138.4345572 142.69194269 C-138.47441389 136.70718276 -138.52586882 130.72252337 -138.57585359 124.73784113 C-138.67163491 112.89377368 -138.76497931 101.04972234 -138.81945252 89.20538187 C-138.82923221 87.09233228 -138.84007018 84.9792874 -138.8517859 82.86624765 C-138.86868304 79.61389274 -138.87998111 76.36156216 -138.88981843 73.10917902 C-138.89554683 72.12937791 -138.90127522 71.1495768 -138.90717721 70.14008474 C-138.94135695 50.71551518 -134.71547086 34.58686806 -121.39616609 19.9468255 C-103.7637274 3.21861445 -78.76662382 2.32948274 -55.83366609 1.1343255 C-54.69642972 1.07324924 -54.69642972 1.07324924 -53.53621888 1.01093912 C-35.69063588 0.07824363 -17.86366952 -0.0150247 0 0 Z " fill="#000000" transform="translate(197.8336660861969,-0.13432550430297852)"/>
<path d="M0 0 C1.66095703 -0.14308594 1.66095703 -0.14308594 3.35546875 -0.2890625 C8.81950003 1.15566442 10.79649484 5.05382212 13.8125 9.625 C14.73494507 11.01235352 14.73494507 11.01235352 15.67602539 12.42773438 C17.56641107 15.32840139 19.41413765 18.25206295 21.25 21.1875 C21.88615234 22.19619141 22.52230469 23.20488281 23.17773438 24.24414062 C24.72688292 26.70181238 26.27169915 29.16208959 27.8125 31.625 C30.63896332 28.21219795 33.07561698 24.74075867 35.37890625 20.95703125 C36.02923828 19.89935547 36.67957031 18.84167969 37.34960938 17.75195312 C38.70614669 15.53204587 40.06029304 13.31067588 41.41210938 11.08789062 C42.06115234 10.03408203 42.71019531 8.98027344 43.37890625 7.89453125 C43.96615479 6.93135986 44.55340332 5.96818848 45.15844727 4.97583008 C46.8125 2.625 46.8125 2.625 49.8125 0.625 C52.7734375 0.25390625 52.7734375 0.25390625 56.1875 0.1875 C57.30898437 0.14753906 58.43046875 0.10757812 59.5859375 0.06640625 C62.83507221 0.62890778 64.52012377 1.30813765 66.77954102 3.71943665 C69.21356965 8.20963988 68.4037425 13.84202687 68.30078125 18.80078125 C68.29370651 20.08107712 68.28663177 21.36137299 68.27934265 22.6804657 C68.26031714 26.07245312 68.21125838 29.46335774 68.15582275 32.85491943 C68.10453199 36.32044834 68.08180789 39.78615347 68.05664062 43.25195312 C68.00153361 50.04349745 67.91523564 56.83401588 67.8125 63.625 C61.8725 63.625 55.9325 63.625 49.8125 63.625 C49.4825 52.405 49.1525 41.185 48.8125 29.625 C45.12994193 36.74203633 45.12994193 36.74203633 41.45458984 43.86279297 C38.93029283 48.72105276 36.36126264 53.55565498 33.6640625 58.3203125 C33.21111816 59.12742676 32.75817383 59.93454102 32.29150391 60.76611328 C30.55932927 62.94319774 29.52592304 63.28100399 26.8125 63.625 C26.32221313 62.76503418 26.32221313 62.76503418 25.82202148 61.88769531 C24.29861947 59.21645126 22.77431176 56.54572502 21.25 53.875 C20.73630859 52.97394531 20.22261719 52.07289063 19.69335938 51.14453125 C15.77397553 44.27952352 11.7960744 37.45398468 7.8125 30.625 C7.4825 41.185 7.1525 51.745 6.8125 62.625 C0.8725 62.625 -5.0675 62.625 -11.1875 62.625 C-11.26165556 54.74131327 -11.31610565 46.85782957 -11.35229492 38.97387695 C-11.36568702 36.29180446 -11.38656077 33.60994508 -11.41381836 30.92797852 C-11.45020611 27.07301749 -11.467228 23.21838267 -11.48046875 19.36328125 C-11.50369453 17.56459343 -11.50369453 17.56459343 -11.52738953 15.72956848 C-11.52761612 14.60878403 -11.52784271 13.48799957 -11.52807617 12.33325195 C-11.53806892 10.85765556 -11.53806892 10.85765556 -11.54826355 9.35224915 C-11.12108527 6.12292735 -10.0924482 4.24504917 -8.1875 1.625 C-5.43737228 0.24993614 -3.06745276 0.19061271 0 0 Z " fill="#000000" transform="translate(144.1875,285.375)"/>
<path d="M0 0 C0.78738052 -0.01139008 1.57476105 -0.02278015 2.38600159 -0.03451538 C10.61686939 -0.14510094 18.84862417 -0.19258261 27.08007812 -0.23535156 C30.98254407 -0.25762025 34.88405272 -0.29938128 38.78613281 -0.35839844 C43.50352082 -0.42960061 48.22000852 -0.46619985 52.93790627 -0.47846985 C54.73165661 -0.4888506 56.52538082 -0.51122783 58.31882286 -0.54606628 C74.10315574 -0.83681175 74.10315574 -0.83681175 79.29736328 3.51953125 C82.75743517 7.26486401 84.2590332 10.07839994 84.2590332 15.22460938 C79.73218544 16.35632132 75.39124385 16.37361047 70.7590332 16.34960938 C70.01266602 16.35347656 69.26629883 16.35734375 68.49731445 16.36132812 C67.76899414 16.36003906 67.04067383 16.35875 66.2902832 16.35742188 C65.63608398 16.35629395 64.98188477 16.35516602 64.30786133 16.35400391 C62.2590332 16.22460938 62.2590332 16.22460938 57.2590332 15.22460938 C57.2590332 30.73460937 57.2590332 46.24460937 57.2590332 62.22460938 C51.6490332 62.22460938 46.0390332 62.22460938 40.2590332 62.22460938 C40.2590332 46.71460938 40.2590332 31.20460938 40.2590332 15.22460938 C28.0490332 15.22460938 15.8390332 15.22460938 3.2590332 15.22460938 C3.2590332 18.52460938 3.2590332 21.82460938 3.2590332 25.22460938 C9.1990332 25.22460938 15.1390332 25.22460938 21.2590332 25.22460938 C21.2590332 29.51460938 21.2590332 33.80460937 21.2590332 38.22460938 C15.3190332 38.55460937 9.3790332 38.88460937 3.2590332 39.22460938 C3.2590332 46.81460938 3.2590332 54.40460938 3.2590332 62.22460938 C-2.3509668 62.22460938 -7.9609668 62.22460938 -13.7409668 62.22460938 C-13.80872832 54.71419979 -13.86377451 47.20390388 -13.89640331 39.69326305 C-13.91206314 36.20579362 -13.9333066 32.71854406 -13.96728516 29.23120117 C-14.0060996 25.22247195 -14.0206733 21.21397389 -14.03393555 17.20507812 C-14.0494194 15.95188278 -14.06490326 14.69868744 -14.08085632 13.40751648 C-14.08108292 12.24653946 -14.08130951 11.08556244 -14.08154297 9.8894043 C-14.0882048 8.86570236 -14.09486664 7.84200043 -14.10173035 6.78727722 C-13.7409668 4.22460938 -13.7409668 4.22460938 -12.40718079 2.43305969 C-8.61843768 -0.31479133 -4.46841662 0.04449167 0 0 Z " fill="#000000" transform="translate(415.740966796875,285.775390625)"/>
<path d="M0 0 C2.18808829 0.00316022 4.37482251 -0.02033625 6.56274414 -0.0456543 C7.97094558 -0.04792783 9.37915061 -0.04863053 10.78735352 -0.04760742 C12.05313232 -0.05058838 13.31891113 -0.05356934 14.62304688 -0.05664062 C21.23773776 0.62050267 25.99046255 3.09733834 30.26000977 8.31567383 C33.79244999 15.31160515 33.75076305 21.78911696 33.70605469 29.50341797 C33.69754269 31.74450554 33.72635712 33.9830402 33.75805664 36.22387695 C33.80211169 44.9350651 33.45357374 51.51130814 27.46313477 58.37426758 C20.927746 62.98825205 14.32181474 63.26979629 6.55444336 63.30102539 C4.11693817 63.31658725 1.6846249 63.38828307 -0.75170898 63.46411133 C-2.4352482 63.50057672 -4.11884515 63.53447697 -5.80249023 63.56567383 C-6.97980713 63.59830322 -6.97980713 63.59830322 -8.1809082 63.6315918 C-14.40329945 63.66488086 -19.25584816 62.59280406 -23.98999023 58.25317383 C-28.91762125 49.9817932 -29.24542111 41.17269815 -29.18603516 31.75610352 C-29.17747264 29.68642201 -29.20646728 27.61946308 -29.23803711 25.55004883 C-29.27719107 18.14338837 -28.90974728 12.58182807 -24.73999023 6.31567383 C-17.78779027 -0.63652614 -9.1865337 -0.02778497 0 0 Z M-9.73999023 17.31567383 C-11.31386789 22.03730679 -11.00711742 26.80753746 -11.05249023 31.75317383 C-11.08149414 32.80311523 -11.11049805 33.85305664 -11.14038086 34.93481445 C-11.14875977 35.94608398 -11.15713867 36.95735352 -11.16577148 37.99926758 C-11.180354 38.92280029 -11.19493652 39.84633301 -11.20996094 40.79785156 C-10.58983934 44.12009262 -9.39832662 45.28547495 -6.73999023 47.31567383 C-3.7597951 47.66179885 -1.20287096 47.78625063 1.76000977 47.69067383 C2.51926758 47.68938477 3.27852539 47.6880957 4.06079102 47.68676758 C9.48514812 47.60904034 9.48514812 47.60904034 14.26000977 45.31567383 C16.31251416 41.21066504 15.53320811 35.95250439 15.57250977 31.44067383 C15.61601562 29.78745117 15.61601562 29.78745117 15.66040039 28.10083008 C15.6687793 27.03993164 15.6771582 25.9790332 15.68579102 24.88598633 C15.70037354 23.91419434 15.71495605 22.94240234 15.72998047 21.94116211 C15.12009711 18.5340527 14.00198427 17.37544603 11.26000977 15.31567383 C9.20269337 14.74294402 9.20269337 14.74294402 7.03735352 14.85473633 C6.25166992 14.85860352 5.46598633 14.8624707 4.65649414 14.86645508 C3.8450293 14.89094727 3.03356445 14.91543945 2.19750977 14.94067383 C1.38217773 14.94196289 0.5668457 14.94325195 -0.27319336 14.94458008 C-5.29422451 14.97984567 -5.29422451 14.97984567 -9.73999023 17.31567383 Z " fill="#000000" transform="translate(359.739990234375,285.684326171875)"/>
<path d="M0 0 C1.44115425 0.00022659 1.44115425 0.00022659 2.91142273 0.00045776 C3.94588028 0.01078033 4.98033783 0.02110291 6.04614258 0.03173828 C7.63789055 0.03598312 7.63789055 0.03598312 9.26179504 0.04031372 C12.6548688 0.05151894 16.0476797 0.07662431 19.44067383 0.10205078 C21.73949814 0.11208013 24.03832659 0.12120606 26.3371582 0.12939453 C31.97593153 0.15145942 37.6145081 0.18599177 43.25317383 0.22705078 C43.25317383 5.17705078 43.25317383 10.12705078 43.25317383 15.22705078 C31.37317383 15.22705078 19.49317383 15.22705078 7.25317383 15.22705078 C7.25317383 18.19705078 7.25317383 21.16705078 7.25317383 24.22705078 C17.81317383 24.22705078 28.37317383 24.22705078 39.25317383 24.22705078 C39.25317383 28.84705078 39.25317383 33.46705078 39.25317383 38.22705078 C37.02696289 38.28763672 34.80075195 38.34822266 32.50708008 38.41064453 C30.3591762 38.47239197 28.21132724 38.53579698 26.06347656 38.59936523 C24.56678113 38.64276891 23.07003444 38.68443991 21.57324219 38.72436523 C19.4260307 38.78193694 17.27907862 38.84566794 15.13208008 38.91064453 C13.1918396 38.9656311 13.1918396 38.9656311 11.21240234 39.02172852 C8.36762375 38.89377858 8.36762375 38.89377858 7.25317383 40.22705078 C7.25317383 41.87705078 7.25317383 43.52705078 7.25317383 45.22705078 C19.13317383 45.55705078 31.01317383 45.88705078 43.25317383 46.22705078 C43.25317383 51.50705078 43.25317383 56.78705078 43.25317383 62.22705078 C36.20571301 62.35059041 29.1588815 62.44136407 22.1105957 62.50170898 C19.71269758 62.5268629 17.31487619 62.56098997 14.91723633 62.60424805 C11.47173134 62.66485813 8.02723936 62.69325234 4.58129883 62.71533203 C3.508255 62.74113846 2.43521118 62.76694489 1.32965088 62.79353333 C-5.91296503 62.79626653 -5.91296503 62.79626653 -9.42382812 60.3996582 C-11.42377654 55.60369407 -11.29787997 51.12472028 -11.24291992 45.97705078 C-11.24437515 44.88618164 -11.24583038 43.7953125 -11.24732971 42.67138672 C-11.245672 40.36829961 -11.23412515 38.06520129 -11.21337891 35.76220703 C-11.18442924 32.23959229 -11.19277269 28.71848329 -11.20581055 25.19580078 C-11.19957277 22.95621014 -11.19118154 20.71662425 -11.18041992 18.47705078 C-11.18335556 17.42485352 -11.1862912 16.37265625 -11.1893158 15.28857422 C-11.07060213 6.07424448 -11.07060213 6.07424448 -7.74682617 2.22705078 C-4.52508368 0.07922245 -3.70345307 -0.0194407 0 0 Z " fill="#000000" transform="translate(231.746826171875,285.77294921875)"/>
<path d="M0 0 C0.88068649 0.00007553 1.76137299 0.00015106 2.66874695 0.00022888 C3.61570938 0.00539017 4.56267181 0.01055145 5.53833008 0.01586914 C6.51071121 0.01728409 7.48309235 0.01869904 8.48493958 0.02015686 C11.59261137 0.02575722 14.70021129 0.03830977 17.80786133 0.05102539 C19.91398008 0.05604034 22.02009996 0.06060326 24.1262207 0.06469727 C29.29096197 0.07572677 34.45564946 0.09299164 39.62036133 0.11352539 C39.62036133 5.06352539 39.62036133 10.01352539 39.62036133 15.11352539 C37.29618164 15.1509082 34.97200195 15.18829102 32.57739258 15.22680664 C30.31680092 15.27306959 28.05637173 15.32428567 25.79589844 15.37597656 C24.22959332 15.40915071 22.66317082 15.43720597 21.09667969 15.45996094 C18.8397437 15.49364655 16.58387606 15.54596588 14.32739258 15.60180664 C13.63136429 15.60819656 12.935336 15.61458649 12.21821594 15.62117004 C7.91763544 15.7500894 4.89480707 16.2268737 1.62036133 19.11352539 C0.90053449 21.67513651 0.90053449 21.67513651 1.06176758 24.58618164 C1.06885742 25.65030273 1.07594727 26.71442383 1.08325195 27.81079102 C1.13255859 29.47658203 1.13255859 29.47658203 1.18286133 31.17602539 C1.18866211 32.29041992 1.19446289 33.40481445 1.20043945 34.55297852 C0.89705723 40.40078604 0.89705723 40.40078604 3.62036133 45.11352539 C5.55293988 45.4818362 5.55293988 45.4818362 7.75317383 45.52758789 C8.55883789 45.56625977 9.36450195 45.60493164 10.19458008 45.64477539 C11.4572168 45.69118164 11.4572168 45.69118164 12.74536133 45.73852539 C14.01959961 45.7965332 14.01959961 45.7965332 15.31958008 45.85571289 C17.41947816 45.95009033 19.51989023 46.03290125 21.62036133 46.11352539 C21.53321116 44.17518543 21.42503169 42.23778249 21.30786133 40.30102539 C21.24985352 39.22208008 21.1918457 38.14313477 21.13208008 37.03149414 C20.57720403 33.86742993 19.9877211 33.12546386 17.62036133 31.11352539 C17.62036133 30.45352539 17.62036133 29.79352539 17.62036133 29.11352539 C25.21036133 29.11352539 32.80036133 29.11352539 40.62036133 29.11352539 C40.75519838 33.6770106 40.8544334 38.2365198 40.93286133 42.80102539 C40.97475586 44.09459961 41.01665039 45.38817383 41.05981445 46.72094727 C41.07592773 47.96811523 41.09204102 49.2152832 41.10864258 50.50024414 C41.13482666 51.64710693 41.16101074 52.79396973 41.18798828 53.97558594 C40.43604758 58.13244349 38.92696324 59.55907023 35.62036133 62.11352539 C29.80896303 64.08129188 23.10684598 63.33741815 17.01074219 63.35375977 C14.82488722 63.36344991 12.6399799 63.394503 10.4543457 63.42602539 C-5.16470107 63.54731625 -5.16470107 63.54731625 -11.40307617 58.46508789 C-11.8490918 57.89532227 -12.29510742 57.32555664 -12.75463867 56.73852539 C-13.21612305 56.17391602 -13.67760742 55.60930664 -14.15307617 55.02758789 C-17.32000543 50.08556453 -17.69881217 45.5023066 -17.71557617 39.74243164 C-17.72223297 38.94248276 -17.72888977 38.14253387 -17.73574829 37.31834412 C-17.74584378 35.63152353 -17.75056627 33.94466326 -17.75024414 32.2578125 C-17.75461904 29.68755924 -17.7909736 27.11902231 -17.82885742 24.54907227 C-17.83472608 22.90519789 -17.83869514 21.26131541 -17.84057617 19.61743164 C-17.86213272 18.47341637 -17.86213272 18.47341637 -17.88412476 17.30628967 C-17.84016802 12.13302752 -16.77983268 9.22193321 -13.37963867 5.11352539 C-8.9386049 1.76009172 -5.56098271 -0.01593405 0 0 Z " fill="#000000" transform="translate(17.379638671875,285.886474609375)"/>
<path d="M0 0 C0.72896484 -0.020625 1.45792969 -0.04125 2.20898438 -0.0625 C7.60081933 -0.10203683 7.60081933 -0.10203683 9.65283203 1.46264648 C11.33826747 3.59965252 12.28987172 5.66268454 13.33984375 8.17578125 C13.76547607 9.18632568 14.1911084 10.19687012 14.62963867 11.23803711 C15.08185791 12.33510986 15.53407715 13.43218262 16 14.5625 C16.47219971 15.69502197 16.94439941 16.82754395 17.4309082 17.99438477 C18.9864766 21.74155469 20.5269659 25.4945925 22.0625 29.25 C22.33843994 29.92341431 22.61437988 30.59682861 22.89868164 31.29064941 C24.58888642 35.41705191 26.27009284 39.54696221 27.93972778 43.68173218 C28.47892091 45.01646415 29.01950476 46.35063517 29.56149292 47.68423462 C30.32115947 49.5568295 31.07286737 51.43264706 31.82421875 53.30859375 C32.473302 54.92205688 32.473302 54.92205688 33.13549805 56.56811523 C34.0625 59.25 34.0625 59.25 34.0625 62.25 C27.4625 62.25 20.8625 62.25 14.0625 62.25 C11.0625 54.25 11.0625 54.25 11.0625 50.25 C4.1325 50.25 -2.7975 50.25 -9.9375 50.25 C-10.411875 52.02375 -10.88625 53.7975 -11.375 55.625 C-12.8125 61 -12.8125 61 -13.9375 63.25 C-20.2075 63.25 -26.4775 63.25 -32.9375 63.25 C-32.24611042 59.10166254 -31.68554133 56.16941603 -30.23510742 52.3972168 C-29.88772018 51.48574387 -29.54033295 50.57427094 -29.18241882 49.63517761 C-28.61839104 48.18187798 -28.61839104 48.18187798 -28.04296875 46.69921875 C-27.65434158 45.68583939 -27.26571442 44.67246002 -26.86531067 43.62837219 C-26.04332645 41.48828246 -25.21861361 39.34923902 -24.39135742 37.21118164 C-23.13428005 33.96149001 -21.88575125 30.70861782 -20.63867188 27.45507812 C-19.83644082 25.36959798 -19.03372212 23.28430535 -18.23046875 21.19921875 C-17.86052292 20.23642502 -17.49057709 19.27363129 -17.10942078 18.28166199 C-15.40021755 13.8706119 -13.65182721 9.47903745 -11.79418945 5.12817383 C-11.48487991 4.40326248 -11.17557037 3.67835114 -10.85688782 2.93147278 C-8.689004 -1.03338031 -3.96682278 0.0279108 0 0 Z M0.0625 21.25 C-0.77514268 23.20649397 -1.60749059 25.16525556 -2.4375 27.125 C-2.9015625 28.21554687 -3.365625 29.30609375 -3.84375 30.4296875 C-5.05802456 33.05661929 -5.05802456 33.05661929 -4.9375 35.25 C-1.6375 35.25 1.6625 35.25 5.0625 35.25 C4.61107225 33.47739369 4.15109477 31.7069632 3.6875 29.9375 C3.43226562 28.95136719 3.17703125 27.96523438 2.9140625 26.94921875 C2.14336826 24.0694184 2.14336826 24.0694184 0.0625 21.25 Z " fill="#000000" transform="translate(93.9375,285.75)"/>
<path d="M0 0 C5.94 0 11.88 0 18 0 C18.02505615 1.32241699 18.0501123 2.64483398 18.07592773 4.00732422 C18.16991165 8.90130754 18.27015418 13.79514593 18.37231445 18.68896484 C18.41569752 20.80937313 18.45737007 22.92981712 18.49731445 25.05029297 C18.55493543 28.09353408 18.61865325 31.1365949 18.68359375 34.1796875 C18.70030624 35.13181122 18.71701874 36.08393494 18.73423767 37.06491089 C18.75418289 37.94567291 18.77412811 38.82643494 18.79467773 39.73388672 C18.81799416 40.89970779 18.81799416 40.89970779 18.84178162 42.08908081 C18.88783251 44.08556935 18.88783251 44.08556935 20 46 C27.26 46.33 34.52 46.66 42 47 C43.20442708 50.02734375 44.40885417 53.0546875 45.61328125 56.08203125 C46.88368637 58.75524992 47.89253454 60.03524079 50 62 C43.34313186 62.0505916 36.68631306 62.0856876 30.02929688 62.10986328 C27.76332751 62.11993859 25.49737119 62.13359918 23.23144531 62.15087891 C19.97978499 62.17506011 16.72829613 62.18646763 13.4765625 62.1953125 C11.94994492 62.21079636 11.94994492 62.21079636 10.39248657 62.22659302 C9.45166229 62.22674408 8.51083801 62.22689514 7.54150391 62.22705078 C6.29574081 62.23371262 6.29574081 62.23371262 5.02481079 62.24050903 C3 62 3 62 1 60 C0.68043836 57.21524861 0.48510105 54.52533635 0.37890625 51.73046875 C0.34116592 50.88896774 0.3034256 50.04746674 0.26454163 49.1804657 C-0.13953712 39.22663069 -0.10958554 29.27242418 -0.0625 19.3125 C-0.05746528 17.42382934 -0.05290592 15.53515735 -0.04882812 13.64648438 C-0.0388656 9.09759471 -0.01926592 4.54889693 0 0 Z " fill="#000000" transform="translate(283,286)"/>
</svg>
